<?xml version="1.0" standalone="no"?>
<!DOCTYPE svg PUBLIC "-//W3C//DTD SVG 20010904//EN"
 "http://www.w3.org/TR/2001/REC-SVG-20010904/DTD/svg10.dtd">
<svg version="1.0" xmlns="http://www.w3.org/2000/svg"
 width="881.000000pt" height="881.000000pt" viewBox="0 0 881.000000 881.000000"
 preserveAspectRatio="xMidYMid meet">
<metadata>
Created by potrace 1.14, written by Peter Selinger 2001-2017
</metadata>
<g transform="translate(0.000000,881.000000) scale(0.100000,-0.100000)"
fill="#000000" stroke="none">
<path d="M4652 8196 l198 -125 67 8 c67 9 394 6 443 -3 14 -3 54 -7 90 -11
148 -14 410 -62 410 -74 0 -4 -30 -5 -67 -3 -38 2 -65 1 -62 -2 3 -3 38 -17
77 -31 402 -140 687 -308 829 -488 26 -34 53 -69 58 -79 6 -9 41 -70 78 -135
37 -66 97 -158 133 -205 67 -91 299 -328 519 -533 352 -328 487 -481 638 -727
113 -183 226 -434 312 -690 24 -72 45 -132 47 -134 9 -9 -6 299 -18 361 -2 10
-6 37 -9 60 -3 22 -8 51 -10 65 -3 14 -7 41 -10 60 -25 156 -100 396 -170 547
-104 222 -224 364 -505 593 -69 56 -147 121 -175 143 -121 99 -273 264 -344
370 -39 60 -71 110 -71 112 0 5 -148 220 -196 285 -84 113 -185 224 -293 322
l-56 51 139 -73 c76 -39 167 -89 202 -111 36 -21 66 -39 69 -39 3 0 73 -46
157 -102 150 -100 272 -190 513 -378 302 -234 450 -302 655 -296 118 4 188 23
305 83 63 33 165 100 165 108 0 2 -10 2 -22 -1 -13 -3 -63 -7 -113 -9 -134 -6
-260 25 -390 95 -27 15 -84 37 -125 50 -142 42 -213 88 -443 285 -171 147
-281 224 -412 289 -213 107 -572 206 -905 251 -25 4 -61 9 -80 11 -19 3 -82
17 -140 31 -58 14 -112 27 -120 28 -53 13 -282 57 -314 61 -22 3 -43 7 -46 9
-3 2 -42 8 -86 14 -44 7 -89 13 -100 15 -23 4 -118 15 -267 31 -27 2 -87 8
-135 11 -48 3 -103 8 -122 9 -19 2 -138 7 -265 11 l-230 6 197 -126z m1251
-213 c-7 -2 -19 -2 -25 0 -7 3 -2 5 12 5 14 0 19 -2 13 -5z"/>
<path d="M5160 7898 c314 -203 513 -358 696 -542 125 -126 176 -192 227 -292
39 -77 124 -280 152 -359 9 -27 21 -59 26 -70 48 -115 124 -438 159 -680 13
-87 14 -94 31 -175 34 -166 99 -302 249 -525 253 -376 551 -687 856 -892 176
-119 372 -203 561 -239 101 -20 334 -23 398 -6 22 6 56 14 75 17 38 7 175 52
200 66 11 6 9 9 -10 10 -70 3 -231 30 -334 55 -384 95 -711 298 -965 599 -69
81 -171 220 -171 232 0 3 -6 14 -14 22 -23 26 -119 209 -163 311 -40 91 -87
225 -113 320 -7 25 -16 59 -21 75 -5 17 -29 111 -53 210 -108 430 -212 704
-357 936 -59 95 -193 277 -265 359 -79 91 -270 276 -357 346 -170 136 -374
254 -467 269 -25 4 -54 9 -65 12 -11 2 -103 6 -205 9 l-185 6 115 -74z"/>
<path d="M4749 7675 c-1 -81 -4 -102 -24 -162 -45 -132 -155 -280 -301 -407
-140 -121 -263 -207 -413 -290 -93 -51 -257 -126 -276 -126 -7 0 -25 -10 -40
-22 -27 -21 -27 -24 -21 -92 3 -39 8 -82 11 -96 7 -34 8 -226 0 -275 -6 -40
-5 -40 13 -19 l18 22 55 -34 c30 -19 74 -37 99 -40 43 -6 49 -3 125 52 156
112 160 114 257 133 179 34 360 11 428 -54 111 -106 30 -458 -166 -726 -26
-35 -50 -66 -53 -69 -4 -3 -17 -18 -30 -35 -91 -119 -287 -315 -426 -428 -55
-44 -176 -131 -270 -193 -196 -129 -251 -175 -304 -253 -93 -137 -194 -363
-244 -546 -49 -178 -62 -270 -62 -445 0 -171 6 -241 28 -324 l13 -48 37 48
c167 221 291 346 446 452 18 13 96 54 172 92 146 74 298 171 390 251 48 41
104 115 156 204 90 155 167 250 281 352 120 106 118 104 367 273 240 163 289
204 387 326 170 212 249 370 295 594 4 22 14 117 17 175 5 86 -51 331 -95 417
-17 32 52 34 125 4 64 -27 207 -157 337 -307 29 -32 54 -58 56 -56 2 2 -5 30
-16 63 -68 213 -193 374 -363 467 -52 29 -164 66 -209 69 -21 2 -50 24 -116
90 -78 78 -85 89 -72 104 39 47 118 51 239 12 178 -57 369 -175 508 -314 50
-51 92 -91 92 -90 0 8 -31 93 -42 116 -88 182 -421 435 -748 570 -97 40 -108
41 -150 16 -19 -12 -48 -28 -65 -35 -44 -21 -204 -22 -307 -2 l-87 16 20 44
c86 192 67 428 -46 566 l-25 30 -1 -70z m-335 -1097 c15 -58 3 -83 -51 -103
-27 -10 -85 -36 -130 -57 -46 -21 -85 -38 -87 -38 -3 0 -37 -15 -78 -34 -169
-78 -178 -80 -178 -35 0 23 12 43 49 82 36 38 50 62 53 86 3 32 9 37 98 82
l95 49 18 -21 c16 -20 22 -50 19 -92 -3 -31 15 -9 42 48 23 51 46 72 46 43 0
-7 12 2 26 20 24 30 28 32 48 19 11 -8 25 -30 30 -49z m-520 -81 c8 -12 1 -26
-32 -61 -46 -50 -54 -88 -28 -138 13 -24 12 -27 -2 -31 -19 -4 -72 12 -72 21
0 12 40 215 42 217 34 25 73 22 92 -8z"/>
<path d="M2537 7494 c-1 -1 -33 -4 -72 -8 -209 -19 -438 -78 -745 -189 -91
-33 -400 -159 -485 -197 -233 -105 -478 -197 -599 -224 l-99 -23 75 -31 c143
-60 324 -96 478 -96 207 0 320 44 790 305 293 163 412 220 560 266 107 34 150
45 150 39 0 -2 -46 -30 -102 -62 -100 -56 -234 -138 -348 -213 -98 -63 -244
-177 -300 -234 -65 -65 -118 -152 -184 -297 -87 -192 -136 -263 -235 -342
-178 -141 -345 -306 -447 -443 -25 -33 -51 -67 -57 -75 -72 -89 -194 -325
-247 -475 -31 -89 -66 -225 -76 -294 -2 -20 -6 -45 -9 -56 -2 -11 -7 -49 -10
-85 -12 -141 -16 -167 -26 -218 -6 -30 -9 -56 -6 -59 3 -2 8 11 12 29 4 18 11
38 14 43 4 6 16 33 26 60 9 28 38 102 63 165 163 415 401 705 782 953 63 41
127 87 141 103 46 50 122 163 224 334 197 330 291 463 421 595 116 119 205
184 325 239 118 54 197 70 339 71 69 0 142 -2 163 -5 l39 -4 -44 -41 c-231
-213 -292 -271 -359 -340 -203 -210 -267 -299 -339 -470 -103 -248 -352 -663
-584 -975 -434 -583 -864 -943 -1241 -1039 -149 -38 -311 -28 -454 28 -28 12
-55 21 -58 21 -15 0 127 -94 190 -126 405 -206 1013 -81 1537 317 241 183 391
383 616 822 134 261 217 398 273 451 l31 29 20 -46 c43 -97 24 -166 -75 -272
-145 -155 -169 -226 -176 -515 -1 -52 -8 -121 -16 -154 -25 -108 -135 -234
-348 -396 -379 -290 -520 -414 -637 -559 -121 -151 -212 -311 -273 -485 -29
-83 -84 -286 -78 -286 2 0 12 19 22 43 65 150 104 220 187 332 76 102 202 228
319 318 48 36 110 80 160 112 33 21 71 46 86 55 14 10 118 70 233 134 246 138
306 178 366 242 123 133 160 218 219 499 17 84 40 163 56 195 78 155 289 255
579 276 206 15 389 -66 453 -201 l16 -34 31 21 c59 41 212 173 320 278 284
275 426 506 426 695 0 86 -47 178 -112 218 -88 55 -158 37 -311 -76 -148 -110
-190 -125 -284 -100 -107 28 -202 93 -274 188 -38 50 -40 57 -30 86 10 30 8
217 -4 289 -4 19 -8 45 -10 57 -3 19 7 28 58 54 112 56 267 153 375 234 103
77 402 358 392 368 -3 3 -40 -1 -83 -9 -242 -42 -528 -40 -722 6 -27 6 -61 14
-75 16 -14 3 -38 9 -55 14 -269 85 -459 132 -590 146 -61 6 -282 13 -288 8z"/>
<path d="M6205 5933 c-105 -127 -207 -293 -345 -558 -217 -419 -301 -519 -545
-650 -225 -121 -343 -190 -425 -251 -191 -140 -286 -285 -297 -455 -6 -76 -5
-78 18 -83 311 -66 519 -159 709 -315 250 -206 355 -461 286 -691 -25 -85 -31
-89 -54 -43 -28 55 -146 203 -162 203 -3 0 -3 -28 2 -62 14 -115 1 -371 -25
-483 -66 -279 -147 -438 -297 -585 -183 -180 -409 -238 -714 -185 -45 8 -233
68 -262 83 -10 6 -47 24 -82 42 -34 17 -77 40 -95 50 -17 11 -39 23 -47 27
-29 13 -196 142 -263 204 -187 172 -369 441 -481 711 -41 98 -102 280 -111
331 -12 65 -23 39 -19 -45 14 -322 61 -541 168 -787 66 -152 213 -387 290
-464 10 -10 17 -20 14 -22 -4 -4 -246 95 -280 115 -38 22 -15 -9 56 -73 174
-159 320 -260 501 -348 103 -51 302 -122 400 -145 28 -6 26 -8 -40 -30 -128
-44 -174 -75 -221 -149 -19 -29 -19 -29 1 -21 78 31 264 69 395 81 36 3 81 8
100 10 19 2 67 7 105 10 62 6 129 15 230 31 55 8 160 36 215 57 95 35 163 79
235 151 l70 71 -2 -91 c-1 -64 5 -116 20 -175 l21 -84 16 75 c31 139 93 286
195 465 85 149 87 152 147 260 96 172 143 285 182 442 38 154 49 231 50 331 0
56 3 87 8 78 33 -59 118 -403 118 -476 0 -11 3 -20 8 -20 9 0 7 300 -2 415
-15 182 -73 378 -172 585 l-55 115 63 -61 c35 -34 79 -76 98 -92 19 -17 51
-45 70 -62 94 -83 389 -254 407 -236 3 3 -20 85 -51 183 -51 163 -101 342
-112 396 -2 12 -10 56 -19 97 -18 95 -23 124 -31 180 -3 25 -7 52 -9 60 -25
95 -26 450 -1 568 26 123 96 308 96 254 0 -28 85 -187 168 -314 165 -251 175
-273 206 -488 8 -52 18 -131 21 -175 30 -364 83 -520 227 -672 100 -103 218
-168 483 -263 285 -103 333 -130 441 -255 25 -29 26 -29 19 -5 -17 60 -60 159
-88 199 -52 76 -115 129 -278 237 -234 155 -328 267 -399 474 -61 179 -62 317
-6 485 47 140 49 200 7 314 -62 169 -151 312 -398 640 -175 231 -205 280 -232
371 -18 58 -76 300 -87 356 -9 49 -56 199 -66 211 -19 24 -37 13 -93 -54z"/>
<path d="M3267 4607 c-231 -221 -318 -381 -461 -848 -38 -124 -79 -193 -124
-210 -74 -28 -214 1 -354 73 -45 23 -96 41 -125 44 -68 8 -124 44 -164 106
-40 63 -45 68 -83 68 -47 0 -104 -38 -117 -79 -34 -105 -84 -166 -164 -202
-52 -23 -164 -135 -219 -218 -96 -144 -143 -295 -116 -375 6 -20 16 -36 21
-36 5 0 8 3 7 8 -5 19 17 83 47 137 39 69 98 142 161 200 51 45 163 117 174
110 4 -2 1 -39 -7 -82 -7 -43 -16 -94 -19 -113 -30 -180 -111 -393 -175 -458
l-31 -32 47 -65 c42 -59 68 -110 121 -234 40 -95 218 -230 483 -366 32 -16 33
-19 17 -30 -21 -16 -55 -7 -171 43 -108 46 -120 47 -143 14 -44 -60 -132 -242
-161 -328 -64 -192 -71 -373 -23 -592 7 -32 9 -29 41 65 53 156 151 353 216
433 36 44 149 155 186 183 20 14 88 51 150 82 62 31 121 63 131 71 32 30 8 78
-65 133 -61 46 -267 155 -267 142 0 -5 4 -11 8 -13 14 -5 83 -100 94 -128 18
-46 27 -80 20 -80 -15 0 -142 128 -189 190 -97 128 -151 237 -188 383 -43 171
-25 283 71 432 24 39 60 102 79 140 l34 70 1 -47 c0 -26 -11 -82 -25 -125 -87
-277 -71 -441 62 -646 113 -175 288 -293 595 -401 l128 -45 -88 87 c-241 240
-427 584 -437 809 -6 122 22 186 98 224 50 26 133 35 180 20 19 -7 53 -32 76
-56 23 -25 48 -45 56 -45 35 0 65 25 79 64 8 23 24 70 36 106 34 97 90 171
186 247 39 31 41 34 34 75 -21 144 25 403 116 645 72 193 225 486 260 500 18
7 18 19 0 26 -8 3 -48 -28 -99 -76z"/>
<path d="M4312 3882 c-18 -3 -12 -9 35 -34 152 -80 287 -188 380 -303 55 -70
63 -84 33 -62 -156 112 -240 148 -350 149 -109 1 -224 -52 -300 -138 -116
-133 -99 -335 39 -462 35 -33 101 -72 120 -72 5 0 3 21 -5 48 -19 60 -27 233
-13 269 52 138 259 156 444 38 151 -96 218 -227 208 -411 -14 -257 -132 -405
-369 -460 -304 -70 -582 50 -779 336 -66 95 -86 184 -85 370 0 80 2 159 4 175
2 17 7 58 11 93 l7 64 -41 -24 c-133 -75 -274 -194 -393 -330 -34 -40 -66 -74
-70 -76 -12 -6 -9 -23 11 -66 223 -472 276 -556 415 -661 97 -72 285 -152 422
-179 11 -2 57 -12 104 -23 65 -14 125 -18 255 -17 155 1 178 3 254 27 46 15
104 38 129 52 56 31 58 31 33 -2 -12 -14 -19 -28 -17 -30 2 -2 32 9 67 25 80
36 158 106 205 183 20 32 38 59 40 59 7 0 -48 -116 -72 -154 -63 -95 -179
-190 -294 -241 -25 -11 -49 -25 -53 -33 -27 -43 -75 -84 -127 -109 -33 -15
-60 -31 -60 -34 0 -10 135 -1 201 15 322 75 589 430 637 846 15 132 4 304 -28
417 -30 109 -67 179 -161 304 -49 65 -89 120 -89 123 0 3 26 -9 57 -27 127
-71 266 -236 365 -430 50 -99 57 -96 51 18 -16 273 -225 506 -593 657 -67 28
-219 74 -274 83 -17 3 -38 8 -46 10 -48 14 -256 26 -308 17z"/>
<path d="M2538 2969 c-33 -19 -178 -248 -178 -282 0 -28 101 -217 172 -322 75
-112 130 -173 233 -258 153 -128 148 -157 -40 -257 -191 -102 -263 -152 -336
-237 -59 -67 -103 -150 -124 -233 -17 -66 -27 -220 -16 -239 4 -6 28 12 56 41
171 175 375 284 552 296 191 12 319 -88 443 -343 52 -107 130 -318 130 -352 0
-18 13 -17 132 11 56 14 123 27 148 31 25 4 67 11 94 16 146 27 477 29 646 4
79 -13 230 -49 295 -72 146 -52 313 -149 408 -236 20 -19 37 -33 37 -31 0 15
-50 109 -85 159 -132 188 -394 346 -735 444 -116 34 -265 66 -350 76 -30 3
-68 8 -84 11 -16 3 -78 5 -137 6 l-108 1 19 36 c19 39 69 95 112 128 l28 21
-78 27 c-83 29 -247 108 -273 131 -8 8 -19 14 -24 14 -33 0 -319 254 -372 330
-10 14 -26 34 -36 45 -25 27 -116 165 -165 251 -81 140 -141 279 -296 686 -21
54 -41 100 -44 102 -4 2 -15 0 -24 -5z"/>
</g>
</svg>
