<svg width="80" viewBox="0 0 92 25" fill="none" xmlns="http://www.w3.org/2000/svg">
    <g id="Branding">
        <rect id="Rectangle 3" width="92" height="25" rx="5" fill="url(#paint0_linear)" />
        <path id="WYVERN"
            d="M21.24 5.94C21.56 5.94 21.8533 6.06667 22.12 6.32C22.4 6.56 22.54 6.86667 22.54 7.24C22.54 7.36 22.52 7.49333 22.48 7.64L18.54 19.24C18.46 19.4667 18.32 19.6467 18.12 19.78C17.92 19.9133 17.7 19.9867 17.46 20C17.22 20 16.9933 19.9333 16.78 19.8C16.5667 19.6667 16.4 19.4733 16.28 19.22L13.44 12.76L10.58 19.22C10.46 19.4733 10.2933 19.6667 10.08 19.8C9.86667 19.9333 9.64 20 9.4 20C9.16 19.9867 8.94 19.9133 8.74 19.78C8.54 19.6467 8.4 19.4667 8.32 19.24L4.38 7.64C4.34 7.49333 4.32 7.36 4.32 7.24C4.32 6.86667 4.45333 6.56 4.72 6.32C5 6.06667 5.30667 5.94 5.64 5.94C5.90667 5.94 6.14667 6.01333 6.36 6.16C6.57333 6.29333 6.72 6.48 6.8 6.72L9.78 15.76L12.38 9.52C12.4867 9.28 12.64 9.09333 12.84 8.96C13.04 8.81333 13.2667 8.74667 13.52 8.76C13.7733 8.74667 13.9933 8.81333 14.18 8.96C14.38 9.09333 14.5333 9.28 14.64 9.52L17.1 15.7L20.06 6.72C20.14 6.48 20.2867 6.29333 20.5 6.16C20.7267 6.01333 20.9733 5.94 21.24 5.94ZM34.4872 7.18C34.4872 7.44667 34.4139 7.69333 34.2672 7.92L30.0872 13.9V18.78C30.0872 19.1267 29.9739 19.42 29.7472 19.66C29.5205 19.8867 29.2472 20 28.9272 20C28.5939 20 28.3072 19.8867 28.0672 19.66C27.8405 19.42 27.7272 19.1267 27.7272 18.78V13.62L23.5672 8.1C23.3272 7.78 23.2072 7.46667 23.2072 7.16C23.2072 6.81333 23.3405 6.52667 23.6072 6.3C23.8872 6.06 24.1805 5.94 24.4872 5.94C24.8605 5.94 25.1872 6.12667 25.4672 6.5L28.9872 11.36L32.2872 6.54C32.5672 6.14 32.9005 5.94 33.2872 5.94C33.6072 5.94 33.8872 6.06 34.1272 6.3C34.3672 6.54 34.4872 6.83333 34.4872 7.18ZM46.5013 5.96C46.8346 5.96 47.1213 6.07333 47.3613 6.3C47.6146 6.52667 47.7413 6.8 47.7413 7.12C47.7413 7.29333 47.7013 7.47333 47.6213 7.66L42.6813 19.22C42.5613 19.4733 42.3946 19.6667 42.1813 19.8C41.9679 19.9333 41.7413 20 41.5013 20C41.2746 19.9867 41.0613 19.92 40.8613 19.8C40.6746 19.6667 40.5279 19.48 40.4213 19.24L35.4813 7.64C35.4146 7.50667 35.3813 7.34 35.3813 7.14C35.3813 6.78 35.5146 6.49333 35.7813 6.28C36.0479 6.05333 36.3213 5.94 36.6013 5.94C36.8279 5.94 37.0413 6.00667 37.2413 6.14C37.4413 6.27333 37.5946 6.46667 37.7013 6.72L41.7213 16.18L45.4013 6.72C45.5079 6.48 45.6613 6.29333 45.8613 6.16C46.0613 6.02667 46.2746 5.96 46.5013 5.96ZM57.7559 17.7C58.1026 17.7 58.3893 17.82 58.6159 18.06C58.8559 18.2867 58.9759 18.5533 58.9759 18.86C58.9759 19.1933 58.8559 19.4667 58.6159 19.68C58.3893 19.8933 58.1026 20 57.7559 20H51.0559C50.7093 20 50.4159 19.8867 50.1759 19.66C49.9493 19.42 49.8359 19.1267 49.8359 18.78V7.22C49.8359 6.87333 49.9493 6.58667 50.1759 6.36C50.4159 6.12 50.7093 6 51.0559 6H57.7559C58.1026 6 58.3893 6.11333 58.6159 6.34C58.8559 6.55333 58.9759 6.83333 58.9759 7.18C58.9759 7.51333 58.8626 7.78667 58.6359 8C58.4093 8.2 58.1159 8.3 57.7559 8.3H52.3359V11.7H56.8559C57.2026 11.7 57.4893 11.8133 57.7159 12.04C57.9559 12.2533 58.0759 12.5333 58.0759 12.88C58.0759 13.2133 57.9626 13.4867 57.7359 13.7C57.5093 13.9 57.2159 14 56.8559 14H52.3359V17.7H57.7559ZM72.2613 18.04C72.4346 18.1467 72.5679 18.2867 72.6613 18.46C72.7679 18.6333 72.8213 18.8133 72.8213 19C72.8213 19.24 72.7413 19.46 72.5813 19.66C72.3813 19.9 72.0746 20.02 71.6613 20.02C71.3413 20.02 71.0479 19.9467 70.7813 19.8C69.8213 19.2533 69.3413 18.14 69.3413 16.46C69.3413 15.98 69.1813 15.6 68.8613 15.32C68.5546 15.04 68.1079 14.9 67.5213 14.9H63.7813V18.78C63.7813 19.14 63.6813 19.4333 63.4813 19.66C63.2946 19.8867 63.0413 20 62.7212 20C62.3346 20 61.9946 19.8867 61.7013 19.66C61.4213 19.42 61.2813 19.1267 61.2813 18.78V7.22C61.2813 6.87333 61.3946 6.58667 61.6213 6.36C61.8613 6.12 62.1546 6 62.5013 6H68.2613C68.9546 6 69.6079 6.18667 70.2213 6.56C70.8346 6.93333 71.3213 7.44667 71.6813 8.1C72.0546 8.75333 72.2413 9.48667 72.2413 10.3C72.2413 10.9667 72.0613 11.62 71.7013 12.26C71.3413 12.8867 70.8746 13.3867 70.3013 13.76C71.1413 14.3467 71.6013 15.1333 71.6813 16.12C71.7213 16.3333 71.7413 16.54 71.7413 16.74C71.7946 17.1533 71.8479 17.4533 71.9013 17.64C71.9546 17.8133 72.0746 17.9467 72.2613 18.04ZM68.1613 12.84C68.4013 12.84 68.6346 12.7267 68.8613 12.5C69.0879 12.2733 69.2746 11.9733 69.4213 11.6C69.5679 11.2133 69.6413 10.8 69.6413 10.36C69.6413 9.98667 69.5679 9.64667 69.4213 9.34C69.2746 9.02 69.0879 8.76667 68.8613 8.58C68.6346 8.39333 68.4013 8.3 68.1613 8.3H63.7813V12.84H68.1613ZM85.6317 6C85.9517 6 86.2117 6.10667 86.4117 6.32C86.6117 6.53333 86.7117 6.8 86.7117 7.12V18.78C86.7117 19.1267 86.5917 19.42 86.3517 19.66C86.1251 19.8867 85.8384 20 85.4917 20C85.3051 20 85.1184 19.9733 84.9317 19.92C84.7584 19.8533 84.6317 19.7667 84.5517 19.66L77.2117 10.34V18.88C77.2117 19.2 77.1051 19.4667 76.8917 19.68C76.6917 19.8933 76.4251 20 76.0917 20C75.7717 20 75.5117 19.8933 75.3117 19.68C75.1117 19.4667 75.0117 19.2 75.0117 18.88V7.22C75.0117 6.87333 75.1251 6.58667 75.3517 6.36C75.5917 6.12 75.8851 6 76.2317 6C76.4317 6 76.6251 6.04 76.8117 6.12C77.0117 6.2 77.1584 6.30667 77.2517 6.44L84.5317 15.72V7.12C84.5317 6.8 84.6317 6.53333 84.8317 6.32C85.0451 6.10667 85.3117 6 85.6317 6Z"
            fill="black" />
    </g>
    <defs>
        <linearGradient id="paint0_linear" x1="2.19048" y1="8.55263" x2="102.953" y2="8.0968"
            gradientUnits="userSpaceOnUse">
            <stop stop-color="#FF4C29" />
            <stop offset="1" stop-color="#FB9905" />
        </linearGradient>
    </defs>
</svg>