<svg id="visual" viewBox="0 0 950 350" width="950" height="350" xmlns="http://www.w3.org/2000/svg"
    xmlns:xlink="http://www.w3.org/1999/xlink" version="1.1">
    <rect x="0" y="0" width="950" height="350" fill="#082032"></rect>
    <path
        d="M0 128L19.8 130.8C39.7 133.7 79.3 139.3 119 144.5C158.7 149.7 198.3 154.3 237.8 152.7C277.3 151 316.7 143 356.2 138.2C395.7 133.3 435.3 131.7 475 131.8C514.7 132 554.3 134 594 134.2C633.7 134.3 673.3 132.7 712.8 134.7C752.3 136.7 791.7 142.3 831.2 146.2C870.7 150 910.3 152 930.2 153L950 154L950 0L930.2 0C910.3 0 870.7 0 831.2 0C791.7 0 752.3 0 712.8 0C673.3 0 633.7 0 594 0C554.3 0 514.7 0 475 0C435.3 0 395.7 0 356.2 0C316.7 0 277.3 0 237.8 0C198.3 0 158.7 0 119 0C79.3 0 39.7 0 19.8 0L0 0Z"
        fill="#67b8bf"></path>
    <path
        d="M0 79L19.8 86.8C39.7 94.7 79.3 110.3 119 117.7C158.7 125 198.3 124 237.8 121C277.3 118 316.7 113 356.2 112.8C395.7 112.7 435.3 117.3 475 114.3C514.7 111.3 554.3 100.7 594 98C633.7 95.3 673.3 100.7 712.8 99.3C752.3 98 791.7 90 831.2 92.2C870.7 94.3 910.3 106.7 930.2 112.8L950 119L950 0L930.2 0C910.3 0 870.7 0 831.2 0C791.7 0 752.3 0 712.8 0C673.3 0 633.7 0 594 0C554.3 0 514.7 0 475 0C435.3 0 395.7 0 356.2 0C316.7 0 277.3 0 237.8 0C198.3 0 158.7 0 119 0C79.3 0 39.7 0 19.8 0L0 0Z"
        fill="#53b0b9"></path>
    <path
        d="M0 91L19.8 91.2C39.7 91.3 79.3 91.7 119 91C158.7 90.3 198.3 88.7 237.8 88C277.3 87.3 316.7 87.7 356.2 84.8C395.7 82 435.3 76 475 76.7C514.7 77.3 554.3 84.7 594 88C633.7 91.3 673.3 90.7 712.8 88.8C752.3 87 791.7 84 831.2 81.7C870.7 79.3 910.3 77.7 930.2 76.8L950 76L950 0L930.2 0C910.3 0 870.7 0 831.2 0C791.7 0 752.3 0 712.8 0C673.3 0 633.7 0 594 0C554.3 0 514.7 0 475 0C435.3 0 395.7 0 356.2 0C316.7 0 277.3 0 237.8 0C198.3 0 158.7 0 119 0C79.3 0 39.7 0 19.8 0L0 0Z"
        fill="#3ba8b3"></path>
    <path
        d="M0 49L19.8 47.7C39.7 46.3 79.3 43.7 119 40.2C158.7 36.7 198.3 32.3 237.8 34.5C277.3 36.7 316.7 45.3 356.2 49C395.7 52.7 435.3 51.3 475 48C514.7 44.7 554.3 39.3 594 39C633.7 38.7 673.3 43.3 712.8 46C752.3 48.7 791.7 49.3 831.2 46.3C870.7 43.3 910.3 36.7 930.2 33.3L950 30L950 0L930.2 0C910.3 0 870.7 0 831.2 0C791.7 0 752.3 0 712.8 0C673.3 0 633.7 0 594 0C554.3 0 514.7 0 475 0C435.3 0 395.7 0 356.2 0C316.7 0 277.3 0 237.8 0C198.3 0 158.7 0 119 0C79.3 0 39.7 0 19.8 0L0 0Z"
        fill="#16a0ad"></path>
</svg>