<svg id="visual" viewBox="0 0 950 350" width="950" height="350" xmlns="http://www.w3.org/2000/svg"
    xmlns:xlink="http://www.w3.org/1999/xlink" version="1.1">
    <rect x="0" y="0" width="950" height="350" fill="#082032"></rect>
    <g>
        <path
            d="M0 156L19.8 156.3C39.7 156.7 79.3 157.3 119 157.8C158.7 158.3 198.3 158.7 237.8 157.8C277.3 157 316.7 155 356.2 146.2C395.7 137.3 435.3 121.7 475 122.8C514.7 124 554.3 142 594 143.2C633.7 144.3 673.3 128.7 712.8 127.8C752.3 127 791.7 141 831.2 149.2C870.7 157.3 910.3 159.7 930.2 160.8L950 162L950 0L930.2 0C910.3 0 870.7 0 831.2 0C791.7 0 752.3 0 712.8 0C673.3 0 633.7 0 594 0C554.3 0 514.7 0 475 0C435.3 0 395.7 0 356.2 0C316.7 0 277.3 0 237.8 0C198.3 0 158.7 0 119 0C79.3 0 39.7 0 19.8 0L0 0Z"
            fill="#67b8bf"></path>
        <path
            d="M0 109L19.8 106.7C39.7 104.3 79.3 99.7 119 100.2C158.7 100.7 198.3 106.3 237.8 106C277.3 105.7 316.7 99.3 356.2 99.8C395.7 100.3 435.3 107.7 475 107C514.7 106.3 554.3 97.7 594 94.8C633.7 92 673.3 95 712.8 100.7C752.3 106.3 791.7 114.7 831.2 113C870.7 111.3 910.3 99.7 930.2 93.8L950 88L950 0L930.2 0C910.3 0 870.7 0 831.2 0C791.7 0 752.3 0 712.8 0C673.3 0 633.7 0 594 0C554.3 0 514.7 0 475 0C435.3 0 395.7 0 356.2 0C316.7 0 277.3 0 237.8 0C198.3 0 158.7 0 119 0C79.3 0 39.7 0 19.8 0L0 0Z"
            fill="#53b0b9"></path>
        <path
            d="M0 84L19.8 85.5C39.7 87 79.3 90 119 89C158.7 88 198.3 83 237.8 77.5C277.3 72 316.7 66 356.2 62C395.7 58 435.3 56 475 57C514.7 58 554.3 62 594 62.2C633.7 62.3 673.3 58.7 712.8 62.2C752.3 65.7 791.7 76.3 831.2 80.3C870.7 84.3 910.3 81.7 930.2 80.3L950 79L950 0L930.2 0C910.3 0 870.7 0 831.2 0C791.7 0 752.3 0 712.8 0C673.3 0 633.7 0 594 0C554.3 0 514.7 0 475 0C435.3 0 395.7 0 356.2 0C316.7 0 277.3 0 237.8 0C198.3 0 158.7 0 119 0C79.3 0 39.7 0 19.8 0L0 0Z"
            fill="#3ba8b3"></path>
        <path
            d="M0 58L19.8 55.2C39.7 52.3 79.3 46.7 119 42.8C158.7 39 198.3 37 237.8 39.5C277.3 42 316.7 49 356.2 50.3C395.7 51.7 435.3 47.3 475 42.3C514.7 37.3 554.3 31.7 594 33.3C633.7 35 673.3 44 712.8 44.7C752.3 45.3 791.7 37.7 831.2 33.5C870.7 29.3 910.3 28.7 930.2 28.3L950 28L950 0L930.2 0C910.3 0 870.7 0 831.2 0C791.7 0 752.3 0 712.8 0C673.3 0 633.7 0 594 0C554.3 0 514.7 0 475 0C435.3 0 395.7 0 356.2 0C316.7 0 277.3 0 237.8 0C198.3 0 158.7 0 119 0C79.3 0 39.7 0 19.8 0L0 0Z"
            fill="#16a0ad"></path>
    </g>
</svg>